# Generated by Visualization Toolkit
v -0.8871449828147888 -0.39292898774147034 0.0744972974061966
v -0.9658730030059814 -0.42232200503349304 0.12870000302791595
v -1.0301200151443481 0.3709309995174408 0.4655439853668213
v -0.9513930082321167 0.4003239870071411 0.41134199500083923
v -0.3165369927883148 -0.6414309740066528 0.7685449719429016
v -0.3807860016822815 0.15182200074195862 1.105389952659607
v -0.45951399207115173 0.1224289983510971 1.1595900058746338
v -0.39526501297950745 -0.6708239912986755 0.822746992111206
v -0.8871449828147888 -0.39292898774147034 0.0744972974061966
v -0.3165369927883148 -0.6414309740066528 0.7685449719429016
v -0.39526501297950745 -0.6708239912986755 0.822746992111206
v -0.9658730030059814 -0.42232200503349304 0.12870000302791595
v -0.9513930082321167 0.4003239870071411 0.41134199500083923
v -1.0301200151443481 0.3709309995174408 0.4655439853668213
v -0.45951399207115173 0.1224289983510971 1.1595900058746338
v -0.3807860016822815 0.15182200074195862 1.105389952659607
v -0.8871449828147888 -0.39292898774147034 0.0744972974061966
v -0.9513930082321167 0.4003239870071411 0.41134199500083923
v -0.3807860016822815 0.15182200074195862 1.105389952659607
v -0.3165369927883148 -0.6414309740066528 0.7685449719429016
v -0.9658730030059814 -0.42232200503349304 0.12870000302791595
v -0.39526501297950745 -0.6708239912986755 0.822746992111206
v -0.45951399207115173 0.1224289983510971 1.1595900058746338
v -1.0301200151443481 0.3709309995174408 0.4655439853668213
vn -0.612089991569519 0.26656800508499146 -0.7445039749145508
vn -0.612089991569519 0.26656800508499146 -0.7445039749145508
vn -0.612089991569519 0.26656800508499146 -0.7445039749145508
vn -0.612089991569519 0.26656800508499146 -0.7445039749145508
vn 0.612089991569519 -0.26656800508499146 0.7445039749145508
vn 0.612089991569519 -0.26656800508499146 0.7445039749145508
vn 0.612089991569519 -0.26656800508499146 0.7445039749145508
vn 0.612089991569519 -0.26656800508499146 0.7445039749145508
vn 0.07434500008821487 -0.9179040193557739 -0.38977599143981934
vn 0.07434500008821487 -0.9179040193557739 -0.38977599143981934
vn 0.07434500008821487 -0.9179040193557739 -0.38977599143981934
vn 0.07434500008821487 -0.9179040193557739 -0.38977599143981934
vn -0.07434500008821487 0.9179040193557739 0.38977599143981934
vn -0.07434500008821487 0.9179040193557739 0.38977599143981934
vn -0.07434500008821487 0.9179040193557739 0.38977599143981934
vn -0.07434500008821487 0.9179040193557739 0.38977599143981934
vn 0.7872849702835083 0.29392799735069275 -0.5420219898223877
vn 0.7872849702835083 0.29392799735069275 -0.5420219898223877
vn 0.7872849702835083 0.29392799735069275 -0.5420219898223877
vn 0.7872849702835083 0.29392799735069275 -0.5420219898223877
vn -0.7872849702835083 -0.29392799735069275 0.5420219898223877
vn -0.7872849702835083 -0.29392799735069275 0.5420219898223877
vn -0.7872849702835083 -0.29392799735069275 0.5420219898223877
vn -0.7872849702835083 -0.29392799735069275 0.5420219898223877
f 1//1 2//2 3//3 4//4
f 5//5 6//6 7//7 8//8
f 9//9 10//10 11//11 12//12
f 13//13 14//14 15//15 16//16
f 17//17 18//18 19//19 20//20
f 21//21 22//22 23//23 24//24
